<svg xmlns="http://www.w3.org/2000/svg" display="none">
    <symbol viewBox="0 0 9 14" id="common__short-arrow">
        <path d="M1.616 1.613a.384.384 0 000 .55l4.937 4.832-4.937 4.842a.384.384 0 000 .55.402.402 0 00.56 0l5.208-5.108a.376.376 0 00.116-.275.392.392 0 00-.116-.275L2.176 1.622a.394.394 0 00-.56-.01z"></path>
    </symbol>

    <symbol viewBox="0 0 12 23" id="socials__fb">
        <path d="M11.15 7.9h-3.4V5.6c.2-2.1 3.8-1.7 3.8-1.7V.3c-.1 0-7-1.7-8.4 3.6-.2.7-.2 3.6-.2 4H.05v4h3.1v10.9h4.5V11.9h3.5l.4-4h-.4z"
              fill-rule="evenodd" clip-rule="evenodd"></path>
    </symbol>

    <symbol viewBox="0 0 24 24" id="socials__instagram">
        <path d="M12.15 2.1c-3.2 0-3.6 0-4.8.1-1.2.1-1.8.2-2.2.4-.6.2-1 .5-1.4.9-.4.4-.7.8-.9 1.4-.2.4-.4 1-.4 2.2-.1 1.3-.1 1.6-.1 4.8s0 3.6.1 4.8c.1 1.2.2 1.8.4 2.2.2.6.5 1 .9 1.4.4.4.8.7 1.4.9.4.2 1 .4 2.2.4 1.3.1 1.6.1 4.8.1s3.6 0 4.8-.1c1.2-.1 1.8-.2 2.2-.4.6-.2 1-.5 1.4-.9.4-.4.7-.8.9-1.4.2-.4.4-1 .4-2.2.1-1.3.1-1.6.1-4.8s0-3.6-.1-4.8c-.1-1.2-.2-1.8-.4-2.2-.2-.6-.5-1-.9-1.4-.4-.4-.8-.7-1.4-.9-.4-.2-1-.4-2.2-.4-1.2 0-1.6-.1-4.8-.1zm0 3.7c-3.4 0-6.1 2.7-6.1 6.1 0 3.4 2.7 6.1 6.1 6.1 3.4 0 6.1-2.7 6.1-6.1 0-3.4-2.7-6.1-6.1-6.1zm0 10.1c2.2 0 4-1.8 4-4s-1.8-4-4-4-4 1.8-4 4 1.8 4 4 4zM4.35 5.5c0 .8.7 1.5 1.5 1.5s1.4-.6 1.4-1.4-.6-1.4-1.4-1.4c-.8-.1-1.5.6-1.5 1.3zm8.1-5.5c3 0 3.4 0 4.6.1 1.3 0 2.1.2 2.9.5.8.3 1.4.7 2.1 1.4.7.7 1.1 1.3 1.4 2.1.3.8.5 1.6.5 2.9.1 1.3.1 1.7.1 4.9s0 3.6-.1 4.9c-.1 1.3-.3 2.1-.6 2.9-.3.8-.7 1.4-1.4 2.1-.7.7-1.3 1.1-2.1 1.4-.8.3-1.6.5-2.9.6-1.3.1-1.7.1-4.9.1s-3.6 0-4.9-.1c-1.3-.1-2.1-.3-2.9-.6-.8-.3-1.4-.7-2.1-1.4-.7-.7-1.1-1.3-1.4-2.1-.3-.8-.5-1.6-.6-2.9-.1-1.2-.1-1.6-.1-4.6v-.6c0-3 0-3.4.1-4.6.1-1.3.3-2.1.6-2.9.3-.8.7-1.4 1.4-2.1.7-.7 1.3-1.1 2.1-1.4.8-.3 1.6-.5 2.9-.6h5.3z"
              fill-rule="evenodd" clip-rule="evenodd"></path>
    </symbol>
</svg>