<svg xmlns="http://www.w3.org/2000/svg" display="none">
    <symbol viewBox="0 0 9 14" id="common__short-arrow">
        <path d="M1.616 1.613a.384.384 0 000 .55l4.937 4.832-4.937 4.842a.384.384 0 000 .55.402.402 0 00.56 0l5.208-5.108a.376.376 0 00.116-.275.392.392 0 00-.116-.275L2.176 1.622a.394.394 0 00-.56-.01z"></path>
    </symbol>

    <symbol viewBox="0 0 12 23" id="socials__fb">
        <path d="M11.15 7.9h-3.4V5.6c.2-2.1 3.8-1.7 3.8-1.7V.3c-.1 0-7-1.7-8.4 3.6-.2.7-.2 3.6-.2 4H.05v4h3.1v10.9h4.5V11.9h3.5l.4-4h-.4z"
              fill-rule="evenodd" clip-rule="evenodd"></path>
    </symbol>

    <symbol viewBox="0 0 24 24" id="socials__instagram">
        <path d="M12.15 2.1c-3.2 0-3.6 0-4.8.1-1.2.1-1.8.2-2.2.4-.6.2-1 .5-1.4.9-.4.4-.7.8-.9 1.4-.2.4-.4 1-.4 2.2-.1 1.3-.1 1.6-.1 4.8s0 3.6.1 4.8c.1 1.2.2 1.8.4 2.2.2.6.5 1 .9 1.4.4.4.8.7 1.4.9.4.2 1 .4 2.2.4 1.3.1 1.6.1 4.8.1s3.6 0 4.8-.1c1.2-.1 1.8-.2 2.2-.4.6-.2 1-.5 1.4-.9.4-.4.7-.8.9-1.4.2-.4.4-1 .4-2.2.1-1.3.1-1.6.1-4.8s0-3.6-.1-4.8c-.1-1.2-.2-1.8-.4-2.2-.2-.6-.5-1-.9-1.4-.4-.4-.8-.7-1.4-.9-.4-.2-1-.4-2.2-.4-1.2 0-1.6-.1-4.8-.1zm0 3.7c-3.4 0-6.1 2.7-6.1 6.1 0 3.4 2.7 6.1 6.1 6.1 3.4 0 6.1-2.7 6.1-6.1 0-3.4-2.7-6.1-6.1-6.1zm0 10.1c2.2 0 4-1.8 4-4s-1.8-4-4-4-4 1.8-4 4 1.8 4 4 4zM4.35 5.5c0 .8.7 1.5 1.5 1.5s1.4-.6 1.4-1.4-.6-1.4-1.4-1.4c-.8-.1-1.5.6-1.5 1.3zm8.1-5.5c3 0 3.4 0 4.6.1 1.3 0 2.1.2 2.9.5.8.3 1.4.7 2.1 1.4.7.7 1.1 1.3 1.4 2.1.3.8.5 1.6.5 2.9.1 1.3.1 1.7.1 4.9s0 3.6-.1 4.9c-.1 1.3-.3 2.1-.6 2.9-.3.8-.7 1.4-1.4 2.1-.7.7-1.3 1.1-2.1 1.4-.8.3-1.6.5-2.9.6-1.3.1-1.7.1-4.9.1s-3.6 0-4.9-.1c-1.3-.1-2.1-.3-2.9-.6-.8-.3-1.4-.7-2.1-1.4-.7-.7-1.1-1.3-1.4-2.1-.3-.8-.5-1.6-.6-2.9-.1-1.2-.1-1.6-.1-4.6v-.6c0-3 0-3.4.1-4.6.1-1.3.3-2.1.6-2.9.3-.8.7-1.4 1.4-2.1.7-.7 1.3-1.1 2.1-1.4.8-.3 1.6-.5 2.9-.6h5.3z"
              fill-rule="evenodd" clip-rule="evenodd"></path>
    </symbol>

    <symbol viewBox="0 0 40 30" id="common__email">
        <path d="M38 3a1 1 0 00-1-1H3a1 1 0 00-1 1v24a1 1 0 001 1h34a1 1 0 001-1V3zm2 24a3 3 0 01-3 3H3a3 3 0 01-3-3V3a3 3 0 013-3h34a3 3 0 013 3v24z"></path>
        <path d="M36 6v2.333L21.8 19.378a2.915 2.915 0 01-3.6 0L4 8.333V6h.333L19.4 17.719a.972.972 0 001.2 0L35.667 6H36z"></path>
    </symbol>

    <symbol viewBox="0 0 17 20" id="common__map-marker">
        <path d="M13.747 13.636A7.283 7.283 0 0016 8.37C16 4.302 12.644 1 8.5 1S1 4.302 1 8.37c0 2.002.816 3.877 2.243 5.257L8.5 18.8l5.247-5.163zM0 8.37C0 3.746 3.807 0 8.5 0S17 3.746 17 8.37a8.28 8.28 0 01-2.556 5.983l-5.593 5.503a.5.5 0 01-.702 0l-5.604-5.513A8.283 8.283 0 010 8.37z"></path>
        <path d="M8.5 12a3.5 3.5 0 110-7 3.5 3.5 0 010 7zm0-1a2.5 2.5 0 100-5 2.5 2.5 0 000 5z"></path>
    </symbol>

    <symbol id="clock" viewBox="0 0 443.294 443.294">
        <path d="m221.647 0c-122.214 0-221.647 99.433-221.647 221.647s99.433 221.647 221.647 221.647 221.647-99.433 221.647-221.647-99.433-221.647-221.647-221.647zm0 415.588c-106.941 0-193.941-87-193.941-193.941s87-193.941 193.941-193.941 193.941 87 193.941 193.941-87 193.941-193.941 193.941z"/>
        <path d="m235.5 83.118h-27.706v144.265l87.176 87.176 19.589-19.589-79.059-79.059z"/>
    </symbol>

    <symbol id="phone" viewBox="0 0 35 35">
        <g>
            <path d="M25.302,0H9.698c-1.3,0-2.364,1.063-2.364,2.364v30.271C7.334,33.936,8.398,35,9.698,35h15.604
		c1.3,0,2.364-1.062,2.364-2.364V2.364C27.666,1.063,26.602,0,25.302,0z M15.004,1.704h4.992c0.158,0,0.286,0.128,0.286,0.287
		c0,0.158-0.128,0.286-0.286,0.286h-4.992c-0.158,0-0.286-0.128-0.286-0.286C14.718,1.832,14.846,1.704,15.004,1.704z M17.5,33.818
		c-0.653,0-1.182-0.529-1.182-1.183s0.529-1.182,1.182-1.182s1.182,0.528,1.182,1.182S18.153,33.818,17.5,33.818z M26.021,30.625
		H8.979V3.749h17.042V30.625z"/>
        </g>
    </symbol>

</svg>